<svg xmlns="http://www.w3.org/2000/svg" viewBox="0 0 458 456"><defs><style>.cls-1,.cls-4{fill:#004da1;}.cls-1,.cls-2{fill-rule:evenodd;}.cls-2,.cls-3{fill:#fff;}</style></defs><g id="Layer_2" data-name="Layer 2"><g id="Layer_1-2" data-name="Layer 1"><g id="background"><path class="cls-1" d="M231,3C104.9,3,2,105.4,2,231S104.9,459,231,459,460,356.6,460,231,357.1,3,231,3Zm.1,449.2c-121.3,0-220-99.3-220-221.3S109.8,9.6,231.1,9.6s220,99.3,220,221.3S352.5,452.2,231.1,452.2Z" transform="translate(-2 -3)"/><path class="cls-2" d="M231.1,9.6c-121.3,0-220,99.3-220,221.3s98.7,221.3,220,221.3,220-99.3,220-221.3S352.5,9.6,231.1,9.6ZM230.5,389A159.88,159.88,0,0,1,117,342.5a158.14,158.14,0,0,1,0-224.6A159.88,159.88,0,0,1,230.5,71.4c88.6,0,160.7,71.2,160.7,158.8S319,389,230.5,389Z" transform="translate(-2 -3)"/><path class="cls-1" d="M391.1,230.2C391.1,317.8,319,389,230.4,389a159.88,159.88,0,0,1-113.5-46.5,158.14,158.14,0,0,1,0-224.6A159.88,159.88,0,0,1,230.4,71.4C319,71.4,391.1,142.6,391.1,230.2Z" transform="translate(-2 -3)"/></g><g id="lines"><path id="Stroke_18" data-name="Stroke 18" class="cls-3" d="M223.6,233l.4.9h0Zm65.7-35.7-.9.4h0Zm8.4,178.6.5.9h0Zm-125.8-115,.9-.4h0Zm22.3,126,176.5-76.4-.8-1.8L193.4,385.1Zm-73-39.2,271-117.5-.8-1.8-271,117.5ZM83.9,295,224,233.9l-.8-1.8-140.1,61ZM224,233.9l154.9-67.6-.8-1.8L223.2,232ZM70.7,229.2c-.1,0-.2.1,0,0h0a4.88,4.88,0,0,1,.7-.3c.5-.2,1.3-.6,2.3-1.1,2-.9,5-2.2,8.7-3.9,7.4-3.3,18-7.9,30.7-13.5,25.3-11.1,58.9-25.8,92.5-40.4s67.1-29.3,92.2-40.2c12.6-5.5,23-10,30.4-13.2,3.7-1.6,6.5-2.9,8.5-3.7,1-.4,1.7-.8,2.2-1,.3-.1.4-.2.6-.2a.1.1,0,0,0,.1-.1h0l-.4-.9-.4-.9h0a.1.1,0,0,0-.1.1c-.1.1-.3.1-.6.2a17.7,17.7,0,0,0-2.2,1c-2,.9-4.8,2.1-8.5,3.7-7.3,3.2-17.8,7.8-30.4,13.2-25.1,11-58.7,25.6-92.2,40.2s-67.2,29.3-92.5,40.4c-12.6,5.5-23.2,10.2-30.7,13.5-3.7,1.6-6.7,3-8.7,3.9-1,.5-1.8.8-2.4,1.1a1.63,1.63,0,0,0-.6.3c-.1,0-.1.1-.2.1a1.24,1.24,0,0,1-.3.2Zm95-146.4L294.6,377.5l1.8-.8L167.5,82Zm.5.5c17.8-6.1,39.9,3.1,62,23.8s43.6,52.3,60.2,90.6l1.8-.8c-16.7-38.5-38.5-70.5-60.7-91.3s-45.1-30.7-64-24.2ZM288.4,197.7c17.5,40.1,26.3,80.6,27.4,113.1.5,16.2-.8,30.4-4,41.5s-8.1,18.9-14.6,22.7l1,1.7c7.1-4.1,12.2-12.6,15.5-23.9s4.6-25.7,4.1-42.1c-1.1-32.8-10-73.6-27.6-113.8ZM297.2,375c-6.6,3.9-15.3,3.8-25.4,0s-21.3-11.1-32.9-21.5c-23.2-20.7-47.5-53.4-66.2-93l-1.8.9c18.8,39.8,43.3,72.7,66.7,93.7,11.7,10.5,23.1,18,33.5,21.9s19.7,4.1,27.1-.1ZM172.8,260.5c-17.5-37.2-27.2-76.4-29-108.7-.9-16.1.3-30.5,3.4-42s8.2-20,15.1-24.7l-1.1-1.7c-7.5,5-12.8,14-16,25.8s-4.3,26.3-3.5,42.6c1.7,32.6,11.5,72,29.1,109.4Zm136,110.9C372,333.8,380.2,251.7,353,183.2S263,59.1,183.6,74.7l.4,2C262.1,61.4,324.1,116,351.1,184s18.6,148.8-43.4,185.7ZM153,87.7c-62.4,38.6-71.5,120.5-44.6,188.6s90.1,123,172.8,107.3l-.4-2C199.5,397,137,343.1,110.3,275.5S92.8,127.2,154.1,89.4Z" transform="translate(-2 -3)"/><rect class="cls-3" x="86.12" y="108" width="185.51" height="2" transform="translate(-30.48 76.31) rotate(-23.21)"/></g><g id="text"><path id="Fill_14" data-name="Fill 14" class="cls-1" d="M98.2,358.7a6.3,6.3,0,1,1-6.1,6.3,6.23,6.23,0,0,1,6.1-6.3" transform="translate(-2 -3)"/><path id="Fill_16" data-name="Fill 16" class="cls-1" d="M361,359a6.3,6.3,0,1,1-6.1,6.3A6.17,6.17,0,0,1,361,359" transform="translate(-2 -3)"/><path class="cls-4" d="M63.7,167.5l-6.3,18.3-2-.7.1-.5a5.31,5.31,0,0,0,.3-1.1,5.1,5.1,0,0,0,.1-.9,1.42,1.42,0,0,0-.2-.6c-.1-.2-.4-.3-.7-.4l-16-5.5a2.49,2.49,0,0,0-.8-.1.86.86,0,0,0-.6.3c-.2.2-.4.5-.7.8s-.4.7-.5.9l-.2.4-2-.7,3.6-10.3,2,.7-.1.5a3.59,3.59,0,0,0-.2,1.1,4.59,4.59,0,0,0-.1,1,.85.85,0,0,0,.2.6,2.51,2.51,0,0,0,.7.4l15,5.1a7.32,7.32,0,0,0,1.6.4,1.48,1.48,0,0,0,.7-.1,2.17,2.17,0,0,0,.6-.7c.2-.4.5-1.1.8-1.9.1-.4.3-.8.4-1.2l.3-1.2a3.75,3.75,0,0,0,.1-1,3.54,3.54,0,0,0-.1-.6,17.28,17.28,0,0,0-3.5-4.1l-.3-.2.7-2Z" transform="translate(-2 -3)"/><path class="cls-4" d="M54.6,189.2l2.1.5L54.1,201l-2.1-.5.3-1.7a7.47,7.47,0,0,0,.1-1.1.6.6,0,0,0-.3-.6,1.49,1.49,0,0,0-.7-.3L34.8,193a1.1,1.1,0,0,0-.8,0c-.1,0-.3.1-.5.5a5.42,5.42,0,0,0-.6,1.1c-.2.5-.4.8-.5,1.1l-.1.5-2.1-.5,2.6-11.3,2.1.5-.1.5c-.1.3-.1.7-.2,1.2v1.2a.85.85,0,0,0,.2.6.91.91,0,0,0,.7.3l16.6,3.8a.85.85,0,0,0,.7,0,1.33,1.33,0,0,0,.6-.5,8.12,8.12,0,0,0,.5-1,4.15,4.15,0,0,0,.4-1.2Z" transform="translate(-2 -3)"/><path class="cls-4" d="M188.2,53.3a8.92,8.92,0,0,1-1.5,3.1,7.91,7.91,0,0,1-2.4,2.1,16,16,0,0,1-2.7,1.2,11,11,0,0,1-3.5.5h-.4a8.84,8.84,0,0,1-3.3-.7,6.14,6.14,0,0,1-2.4-1.7,6,6,0,0,1-1.3-2.5l-3.8-13.4a1.61,1.61,0,0,0-.4-.7,1.54,1.54,0,0,0-.7-.3,2.79,2.79,0,0,0-1-.1c-.4,0-.8.1-1,.1l-.5.1-.6-2,10.4-3,.6,2.1-.5.1a6.89,6.89,0,0,0-1,.4,3.05,3.05,0,0,0-.9.5.54.54,0,0,0-.3.5,2.2,2.2,0,0,0,.1.8l3.6,12.5a13.36,13.36,0,0,0,.7,1.8,4.43,4.43,0,0,0,1.2,1.5,5.57,5.57,0,0,0,1.9.9,6.31,6.31,0,0,0,2.9-.3,7,7,0,0,0,2.6-1.3,4.35,4.35,0,0,0,1.3-1.8,6.46,6.46,0,0,0,.4-1.9,11,11,0,0,0-.2-1.8l-2.7-9.3a19.73,19.73,0,0,0-1-2.7c-.4-.8-.7-1-.9-1a6.05,6.05,0,0,0-1.5-.2,4.87,4.87,0,0,0-1.5.2l-.4.1-.6-2.1L187,32l.6,2.1-.5.2c-.3.1-.7.3-1.2.5a2.42,2.42,0,0,0-1.1.8,1.62,1.62,0,0,0-.2,1.3,20.46,20.46,0,0,0,.6,2.8l2.8,9.8A7.12,7.12,0,0,1,188.2,53.3Z" transform="translate(-2 -3)"/><path id="Stroke_81" data-name="Stroke 81" class="cls-4" d="M234.4,49.5h0c0,.1.1.1,0,0Zm0,0h0c0,.1.1.1,0,0Z" transform="translate(-2 -3)"/><path id="Fill_83" data-name="Fill 83" class="cls-1" d="M265.8,37.3l-1.1-.1c-.1-.4-.2-.9-.4-1.5a7.74,7.74,0,0,0-.7-1.6l-.9-1.5a2.1,2.1,0,0,0-1.1-.8,13,13,0,0,0-1.3-.3,7.84,7.84,0,0,0-1.4-.2l-1-.1-2.3,18.7a3.08,3.08,0,0,0,.1,1,1.78,1.78,0,0,0,.7.8,8.66,8.66,0,0,0,1.2.5c.6.2,1.1.3,1.4.4l-.1,1.2-11-1.4.1-1.2h1.4a4.15,4.15,0,0,0,1.3-.1,1.93,1.93,0,0,0,.9-.5,2.32,2.32,0,0,0,.4-1l2.3-18.9-1-.1c-.3,0-.8-.1-1.3-.1s-1-.1-1.5-.1a2.08,2.08,0,0,0-1.2.5,4.56,4.56,0,0,0-1.2,1.2c-.4.5-.7.9-1.1,1.5a8.79,8.79,0,0,0-.7,1.3l-1.2-.1.8-6.3L266.3,31Z" transform="translate(-2 -3)"/><path class="cls-4" d="M245.7,27.9l-.9,7.3,2,.2.1-.4a4,4,0,0,1,.7-1.2,17,17,0,0,1,1-1.4,12,12,0,0,1,1.2-1.1,1.63,1.63,0,0,1,.9-.4,6.6,6.6,0,0,1,1.4.1c.5,0,.9.1,1.3.1l.5.1-2.3,18.3a1,1,0,0,1-.3.8.92.92,0,0,1-.6.4,6.76,6.76,0,0,1-1.2.1h-1.9l-.3,2.1,12,1.5.3-2.1-.5-.1a6.25,6.25,0,0,1-1.4-.4,8.17,8.17,0,0,0-1.1-.4,1.18,1.18,0,0,1-.5-.5,2,2,0,0,1-.1-.8l2.2-18.2h.5c.4.1.9.1,1.4.2a7.38,7.38,0,0,0,1.2.2,2.1,2.1,0,0,1,.8.6,8.51,8.51,0,0,1,.9,1.4,7.58,7.58,0,0,1,.6,1.6,10.26,10.26,0,0,1,.4,1.4v.4l2,.2.9-7.3Zm19.4,8.8c-.1-.3-.2-.8-.3-1.2a8.65,8.65,0,0,0-.7-1.7,5.6,5.6,0,0,0-1-1.5,3.05,3.05,0,0,0-1.3-1,13,13,0,0,0-1.3-.3,7.72,7.72,0,0,0-1.5-.2l-1.4-.2-2.4,19.2a5.7,5.7,0,0,0,.1,1.3,2.59,2.59,0,0,0,1,1.1,5.21,5.21,0,0,0,1.3.5c.4.1.8.2,1.1.3v.2L248.6,52v-.2h1a5.76,5.76,0,0,0,1.5-.1,1.77,1.77,0,0,0,1.1-.7,2.54,2.54,0,0,0,.5-1.3l2.4-19.3-1.5-.2c-.3,0-.8-.1-1.3-.1s-1-.1-1.5-.1a2.4,2.4,0,0,0-1.5.6,8,8,0,0,0-1.3,1.3,14.31,14.31,0,0,0-1.1,1.5,8.79,8.79,0,0,1-.6,1H246l.7-5.4,19.4,2.4-.7,5.3Z" transform="translate(-2 -3)"/><path id="Stroke_101" data-name="Stroke 101" class="cls-4" d="M344.9,89.9h0C345,89.9,345,90,344.9,89.9Zm0,0h0C345,89.9,345,90,344.9,89.9Z" transform="translate(-2 -3)"/><path class="cls-4" d="M355.6,70.5l.1-.3-.3-.2-1-.8-.3-.2-.3.2c-2.7,1.6-5.7,3.4-9.1,5.4s-6.5,3.8-9.2,5.4a4.88,4.88,0,0,1-1.3.6,4.12,4.12,0,0,1-1.2.1h0a2.3,2.3,0,0,1-.9-.3,3.6,3.6,0,0,1-.9-.5l-.4-.2-.3.4-.7.9-.3.4.4.3,7,5.5.4.3.3-.4.7-.9.3-.4-.4-.3a8,8,0,0,1-1.5-1.7c-.4-.6-.3-.8-.2-.9a2.25,2.25,0,0,1,.5-.5h0a9.68,9.68,0,0,1,.9-.7c.4-.3.9-.6,1.4-.9a9.88,9.88,0,0,1,1.5-.9l6,4.7-1.6,5h0c0,.1-.1.1-.1.3s-.1.1-.1.2,0,0,0,.1h0v-.1a1.09,1.09,0,0,1-.5-.1,8.47,8.47,0,0,1-1.8-1l-.4-.3-.3.4-.7.9-.3.4.4.3,7.7,6,.4.3.3-.4.7-.9.3-.4-.4-.3a2.17,2.17,0,0,1-.6-.7,9.22,9.22,0,0,1-.5-.8h0a4.4,4.4,0,0,1-.2-1,2,2,0,0,1,.2-1Zm-8.1,11.4-4.4-3.5,6.7-4Z" transform="translate(-2 -3)"/><path id="Stroke_125" data-name="Stroke 125" class="cls-4" d="M413.1,232.3Zm0,0Z" transform="translate(-2 -3)"/><path class="cls-4" d="M425.2,294a11.22,11.22,0,0,0-1.3-4.4,13.1,13.1,0,0,0-7.9-6.2,12.86,12.86,0,0,0-5.1-.7,11.53,11.53,0,0,0-4.6,1.1,10.69,10.69,0,0,0-3.7,2.7,11,11,0,0,0-2.4,4.2,12.17,12.17,0,0,0-.6,4.6h0a11.73,11.73,0,0,0,1.3,4.4h0a12,12,0,0,0,3.1,3.7,14.08,14.08,0,0,0,4.7,2.5h0a16.66,16.66,0,0,0,5.3.8,12.55,12.55,0,0,0,4.7-1.2h0a11,11,0,0,0,3.6-2.8,12.75,12.75,0,0,0,2.3-4.1A9.19,9.19,0,0,0,425.2,294Zm-2.9,3.8a4.94,4.94,0,0,1-1.6,2.5,7.22,7.22,0,0,1-2.6,1.4h0a9.88,9.88,0,0,1-3.5.2,18.38,18.38,0,0,1-4.3-.9,14.94,14.94,0,0,1-3.8-1.7,10,10,0,0,1-2.7-2.2,5.85,5.85,0,0,1-1.4-2.7,5.15,5.15,0,0,1,.2-3,6.07,6.07,0,0,1,1.6-2.6,5.69,5.69,0,0,1,2.7-1.3,10,10,0,0,1,3.5-.2,16.91,16.91,0,0,1,4.1.9,20.64,20.64,0,0,1,3.7,1.6,15.73,15.73,0,0,1,2.8,2.1,7.2,7.2,0,0,1,1.5,2.7A5.14,5.14,0,0,1,422.3,297.8Z" transform="translate(-2 -3)"/><path class="cls-4" d="M414.6,322.2l-20.8,3.4,8.6,4.4a17.74,17.74,0,0,0,2.8,1.2,1.72,1.72,0,0,0,1.3,0,3.73,3.73,0,0,0,1.1-1,7.74,7.74,0,0,0,1-1.2l.2-.4,1.9,1L406,339l-1.9-1,.2-.4a6.8,6.8,0,0,0,.4-1.3,4.34,4.34,0,0,0,.2-1.3c0-.3-.3-.7-.9-1.1a10.93,10.93,0,0,0-2.5-1.5l-15.8-8,1-2,22.4-3.8-9.5-4.8a17.74,17.74,0,0,0-2.8-1.2,1.67,1.67,0,0,0-1.4,0c-.2,0-.5.2-1.1,1a5,5,0,0,0-1,1.2l-.2.4-1.9-1,4.8-9.5,1.9,1-.2.4a6.42,6.42,0,0,0-.4,1.4,2.67,2.67,0,0,0-.1,1.2,1.9,1.9,0,0,0,.7,1.1,21.07,21.07,0,0,0,2.7,1.6l10.3,5.3a5,5,0,0,0,1.3.4,2,2,0,0,0,1.1-.1,8,8,0,0,0,1.4-.9,4.84,4.84,0,0,0,1-1.2l.2-.4,1.9,1Z" transform="translate(-2 -3)"/><path class="cls-4" d="M73.9,325.5a11.86,11.86,0,0,1-2.4,4,14.62,14.62,0,0,1-4.3,3.2,14.37,14.37,0,0,1-5.1,1.6,8.08,8.08,0,0,1-1.6.1,16.48,16.48,0,0,1-3.2-.4,10.84,10.84,0,0,1-7-5.8,14.49,14.49,0,0,1-1.1-3.1,21.12,21.12,0,0,1-.2-2.6l-1.1-.1-1-1.9,8.3-4.4,1,2-.3.2c-.6.5-1.3,1.2-2,1.9a6.85,6.85,0,0,0-1.5,2.1,6.76,6.76,0,0,0-.7,2.3,4.79,4.79,0,0,0,.5,2.3,6.74,6.74,0,0,0,1.9,2.2,6.34,6.34,0,0,0,2.8,1.1,10.74,10.74,0,0,0,3.5-.2,17.61,17.61,0,0,0,4.3-1.6,13.78,13.78,0,0,0,3.3-2.3,10.8,10.8,0,0,0,2.1-2.8,6.74,6.74,0,0,0,.8-3,6.58,6.58,0,0,0-.7-3,6.69,6.69,0,0,0-1.4-1.9,5.45,5.45,0,0,0-1.7-1.1,11.7,11.7,0,0,0-2-.5,7.39,7.39,0,0,0-2.1,0l-.6.1-.1-2.4h.5a11,11,0,0,1,6.5,1.2,11.25,11.25,0,0,1,4.1,4.5,12,12,0,0,1,1.2,4.2A20.71,20.71,0,0,1,73.9,325.5Z" transform="translate(-2 -3)"/><path class="cls-4" d="M63.1,294.5a11.35,11.35,0,0,0-2.5-3.9,11.83,11.83,0,0,0-3.7-2.6,14.6,14.6,0,0,0-4.7-1,14.6,14.6,0,0,0-5.3,1,16,16,0,0,0-4.6,2.7,11.68,11.68,0,0,0-2.9,3.8,11.42,11.42,0,0,0-1.1,4.4,10.41,10.41,0,0,0,.8,4.6,11.35,11.35,0,0,0,2.5,3.9,11.19,11.19,0,0,0,3.8,2.6h0a14.6,14.6,0,0,0,4.7,1,14.6,14.6,0,0,0,5.3-1,12.83,12.83,0,0,0,4.4-2.6,12.14,12.14,0,0,0,4.1-8.3h0A11.18,11.18,0,0,0,63.1,294.5Zm-1.9,4a6.6,6.6,0,0,1-1.2,2.7h0a10,10,0,0,1-2.6,2.4,22.4,22.4,0,0,1-3.8,1.9,19,19,0,0,1-3.9,1.1,13.92,13.92,0,0,1-3.5.1h0a7.44,7.44,0,0,1-2.9-1.2,5.22,5.22,0,0,1-1.9-2.6,6.25,6.25,0,0,1-.4-3,6.44,6.44,0,0,1,1.1-2.7,10.15,10.15,0,0,1,2.6-2.4,17.79,17.79,0,0,1,3.9-2,17.26,17.26,0,0,1,4-1.1,10.28,10.28,0,0,1,3.5,0,6.45,6.45,0,0,1,2.8,1.2,5.77,5.77,0,0,1,1.8,2.5A5.08,5.08,0,0,1,61.2,298.5Z" transform="translate(-2 -3)"/><path class="cls-4" d="M55.6,272.1a10.07,10.07,0,0,1-1.1,3.2,7,7,0,0,1-2,2.2,6.4,6.4,0,0,1-2.6,1l-13.8,2.2a1.45,1.45,0,0,0-.7.2c-.2.1-.3.3-.4.7a8.66,8.66,0,0,0-.2,1v1.5l-2.1.3L31,273.6l2.1-.3.1.5a8.11,8.11,0,0,1,.3,1.1,4.13,4.13,0,0,0,.4.9c.2.3.3.4.5.4a1.1,1.1,0,0,0,.8,0l12.8-2a12.09,12.09,0,0,0,1.8-.5,5.37,5.37,0,0,0,1.6-1,5.44,5.44,0,0,0,1.1-1.8,6.71,6.71,0,0,0,.1-2.9,6.62,6.62,0,0,0-1-2.7,4.5,4.5,0,0,0-1.6-1.5,6.36,6.36,0,0,0-1.8-.6,6,6,0,0,0-1.9,0l-9.5,1.5a12.58,12.58,0,0,0-2.8.7c-.8.3-1.1.6-1.1.8a3.34,3.34,0,0,0-.3,1.5,3.75,3.75,0,0,0,0,1.5v.5l-2.1.3-1.7-10.5,2.1-.3.1.5a4.15,4.15,0,0,0,.4,1.2,3.46,3.46,0,0,0,.7,1.2c.1.2.5.3,1.3.4s1.7-.1,2.8-.2l10.1-1.6a7.48,7.48,0,0,1,3.7.3,7,7,0,0,1,2.9,1.9,8,8,0,0,1,1.8,2.7,15.18,15.18,0,0,1,.9,2.8A11.48,11.48,0,0,1,55.6,272.1Z" transform="translate(-2 -3)"/><path class="cls-4" d="M52.1,233.4,33.8,246.9H44.4a21.13,21.13,0,0,0,3-.2,2.62,2.62,0,0,0,1.3-.6,3.68,3.68,0,0,0,.6-1.4,5.25,5.25,0,0,0,.3-1.5v-.5h2.2v10.7H49.6v-.5a8.74,8.74,0,0,0-.3-1.4,2.55,2.55,0,0,0-.4-1.1,1.71,1.71,0,0,0-1.2-.6,21,21,0,0,0-3.2-.2H33.1a6.75,6.75,0,0,0-1.4.2c-.4.2-.8.3-1,.6a3.47,3.47,0,0,0-.8,1.5,5.62,5.62,0,0,0-.4,1.5v.5H27.3v-7.5l16.9-12.5H34.5a21.13,21.13,0,0,0-3,.2c-.8.2-1.1.4-1.2.6a6.24,6.24,0,0,0-.5,1.4,6.36,6.36,0,0,0-.3,1.5v.5H27.4V227.5h2.2v.5c0,.2.1.6.2,1.3a4.93,4.93,0,0,0,.4,1.2,1.76,1.76,0,0,0,1.3.6,21.93,21.93,0,0,0,2.9.2H52.2v2.1Z" transform="translate(-2 -3)"/><path class="cls-4" d="M53,213.6a9.74,9.74,0,0,1-1.2,4.1,11.32,11.32,0,0,1-2.8,3.4,13.79,13.79,0,0,1-4.2,2.1,12,12,0,0,1-3.8.5,7.57,7.57,0,0,1-1.5-.1,16.54,16.54,0,0,1-5.2-1.3,13.87,13.87,0,0,1-3.9-2.8,11.33,11.33,0,0,1-2.3-4,10.51,10.51,0,0,1-.5-4.7,13.79,13.79,0,0,1,.7-3.2,10.08,10.08,0,0,1,1.2-2.3l-.9-.7.2-2.1,9.4.7-.2,2.3h-.4a13.78,13.78,0,0,0-2.6.6,7.54,7.54,0,0,0-2.4,1,6.9,6.9,0,0,0-1.8,1.6,4.81,4.81,0,0,0-.8,2.2,6.58,6.58,0,0,0,.4,2.8,6.9,6.9,0,0,0,1.8,2.4,10,10,0,0,0,3.1,1.7,14.94,14.94,0,0,0,4.4.9,13.12,13.12,0,0,0,4-.2,12,12,0,0,0,3.3-1.3,8,8,0,0,0,2.3-2.2,5.6,5.6,0,0,0,1-2.9,5.83,5.83,0,0,0-.2-2.3,5.57,5.57,0,0,0-.9-1.9,10,10,0,0,0-1.4-1.5,17.39,17.39,0,0,0-1.8-1.1l-.5-.2,1.2-2.1.4.2a11.23,11.23,0,0,1,4.9,4.4A10.93,10.93,0,0,1,53,213.6Z" transform="translate(-2 -3)"/><path class="cls-4" d="M76.3,136.6a11,11,0,0,0-2.2-4.3,15.26,15.26,0,0,0-4-3.5,14,14,0,0,0-5-1.9,11,11,0,0,0-4.8.1,11.38,11.38,0,0,0-4.2,1.9,12,12,0,0,0-3.2,3.5,11.64,11.64,0,0,0-1.5,4.3,11.94,11.94,0,0,0,.3,4.6,11,11,0,0,0,2.2,4.3,14.29,14.29,0,0,0,4.1,3.5,17.8,17.8,0,0,0,4.8,1.9,12.37,12.37,0,0,0,4.7,0h0a11.16,11.16,0,0,0,4.2-1.8,11.48,11.48,0,0,0,3.3-3.6,13.68,13.68,0,0,0,1.6-4.4A11.82,11.82,0,0,0,76.3,136.6Zm-3.4,7.6a6.6,6.6,0,0,1-2.2,2.2,5.66,5.66,0,0,1-2.9.7,11.2,11.2,0,0,1-3.5-.6,18.51,18.51,0,0,1-3.8-1.8,15.74,15.74,0,0,1-3.2-2.4,13.06,13.06,0,0,1-2.2-2.7h0a8.6,8.6,0,0,1-.9-3,5.49,5.49,0,0,1,.9-3.1,6,6,0,0,1,2.1-2.1,6.94,6.94,0,0,1,2.8-.8,11.69,11.69,0,0,1,3.5.6,17,17,0,0,1,3.9,1.8,23,23,0,0,1,3.4,2.5,10.8,10.8,0,0,1,2.1,2.8,5.32,5.32,0,0,1,.7,3A4.35,4.35,0,0,1,72.9,144.2Z" transform="translate(-2 -3)"/><path class="cls-4" d="M94.4,116.4l-22.7-.6,8.4,6.6a15.82,15.82,0,0,0,2.5,1.7,2.07,2.07,0,0,0,1.4.3c.2,0,.5-.2,1.3-.7s1.1-.9,1.1-1l.3-.4,1.7,1.3L81.8,132l-1.7-1.3.3-.4A8.74,8.74,0,0,0,81,129a3.1,3.1,0,0,0,.4-1.2,2.08,2.08,0,0,0-.5-1.2,14.44,14.44,0,0,0-2.4-2.1l-9.1-7.1a4.73,4.73,0,0,0-1.2-.7,2.16,2.16,0,0,0-1.1-.1,6.39,6.39,0,0,0-1.6.6,4.55,4.55,0,0,0-1.2.9l-.3.3-1.7-1.3,4.6-5.9,21,.6-7.6-6a12.49,12.49,0,0,0-2.6-1.7,3,3,0,0,0-1.3-.3,4.24,4.24,0,0,0-1.3.8,4.43,4.43,0,0,0-1.2,1l-.3.4-1.7-1.3,6.5-8.3,1.7,1.3-.1.4a3.26,3.26,0,0,0-.6,1.2,5.84,5.84,0,0,0-.5,1.3,1.93,1.93,0,0,0,.6,1.2,15.43,15.43,0,0,0,2.2,2l14,10.9Z" transform="translate(-2 -3)"/><path class="cls-4" d="M119.6,82.3a15.44,15.44,0,0,0-2.7-4.6,15,15,0,0,0-4.1-3.5,13.08,13.08,0,0,0-4.6-1.5,11.49,11.49,0,0,0-4.5.4,11.12,11.12,0,0,0-4.1,2.3A11.24,11.24,0,0,0,96.7,79a11.57,11.57,0,0,0-1.2,4.4,13,13,0,0,0,3.3,9.5,13.83,13.83,0,0,0,4,3.3,11.4,11.4,0,0,0,4.5,1.5h0a10.32,10.32,0,0,0,4.6-.4,10.89,10.89,0,0,0,4.2-2.3,11.24,11.24,0,0,0,2.9-3.6,11.1,11.1,0,0,0,1.2-4.4A9.72,9.72,0,0,0,119.6,82.3Zm-3.3,8.4a4.9,4.9,0,0,1-1.8,2.5,4.81,4.81,0,0,1-2.8,1.3,5.19,5.19,0,0,1-3-.3h0a8.65,8.65,0,0,1-3.1-1.7,21.21,21.21,0,0,1-3-3,21.94,21.94,0,0,1-2.3-3.3,11,11,0,0,1-1.2-3.3h0a6.46,6.46,0,0,1,.2-3.1,5.59,5.59,0,0,1,1.8-2.6,6.71,6.71,0,0,1,2.7-1.3,5.74,5.74,0,0,1,2.9.2h0a10.7,10.7,0,0,1,3.1,1.7,17.42,17.42,0,0,1,3.1,3,18.23,18.23,0,0,1,2.4,3.5,8.58,8.58,0,0,1,1.1,3.3A4.14,4.14,0,0,1,116.3,90.7Z" transform="translate(-2 -3)"/><path class="cls-4" d="M141.4,74.9a10.36,10.36,0,0,1-4.1,4.5,11.59,11.59,0,0,1-4,1.6,11,11,0,0,1-1.8.2,11.53,11.53,0,0,1-2.6-.3,10.18,10.18,0,0,1-4.2-2,13.52,13.52,0,0,1-3.6-3.9,14,14,0,0,1-2.3-9.7,11.4,11.4,0,0,1,1.7-4.3,11.9,11.9,0,0,1,3.4-3.3,10.13,10.13,0,0,1,3-1.4,10.86,10.86,0,0,1,2.5-.4V54.8l1.8-1.1,5.3,7.8-1.9,1.2-.3-.3a19.58,19.58,0,0,0-2.1-1.8,10.48,10.48,0,0,0-2.2-1.3,4.88,4.88,0,0,0-2.3-.4,3.72,3.72,0,0,0-2.2.8,5.78,5.78,0,0,0-2,2.1,6.56,6.56,0,0,0-.8,2.9,12.23,12.23,0,0,0,.6,3.5,17.14,17.14,0,0,0,2,4.1,20.29,20.29,0,0,0,2.6,3.1,11.94,11.94,0,0,0,3,1.8,8.4,8.4,0,0,0,3.1.5,6.3,6.3,0,0,0,2.9-1,6.56,6.56,0,0,0,1.7-1.6,6.92,6.92,0,0,0,1-1.9,7.11,7.11,0,0,0,.3-2.1,14.92,14.92,0,0,0-.2-2.1l-.1-.5,2.4-.3.1.5A12.68,12.68,0,0,1,141.4,74.9Z" transform="translate(-2 -3)"/><path class="cls-4" d="M164.8,58a10.51,10.51,0,0,1-1.5,6.4,11.17,11.17,0,0,1-4.7,3.8,10.23,10.23,0,0,1-4.2.9h-.1a12.49,12.49,0,0,1-4.2-.8,14,14,0,0,1-3.9-2.6,15.55,15.55,0,0,1-3-4.4,14.73,14.73,0,0,1-1.3-5.2,12.69,12.69,0,0,1,.6-4.8,12.28,12.28,0,0,1,2.3-4,10.18,10.18,0,0,1,3.8-2.7,10.33,10.33,0,0,1,3.2-.9,11.29,11.29,0,0,1,2.6,0l.1-1.1,1.9-.9,4,8.5-2.1.9-.2-.3q-.75-.9-1.8-2.1a12.68,12.68,0,0,0-2-1.6,6.52,6.52,0,0,0-2.2-.8,3.9,3.9,0,0,0-2.3.4,5.43,5.43,0,0,0-2.2,1.7,6.06,6.06,0,0,0-1.2,2.7,10.8,10.8,0,0,0,0,3.6,15.39,15.39,0,0,0,1.4,4.3,14,14,0,0,0,2.1,3.4,9.73,9.73,0,0,0,2.7,2.3,8.6,8.6,0,0,0,3,.9,6.34,6.34,0,0,0,3-.5,5.33,5.33,0,0,0,1.9-1.3,6.57,6.57,0,0,0,1.2-1.7,6.64,6.64,0,0,0,.6-2,7.94,7.94,0,0,0,.1-2.2v-.5l2.4.1Z" transform="translate(-2 -3)"/><path class="cls-4" d="M213.2,34.8a5.43,5.43,0,0,0-2.8-4.3,8.59,8.59,0,0,0-5.8-1L194,30.8l-.5.1.1.5.2,1.2v.5h1.5a4.87,4.87,0,0,1,1.2.1c.3.1.5.2.5.3a2,2,0,0,1,.2.9l2.1,16.9a1.72,1.72,0,0,1-.1.8,1.76,1.76,0,0,1-.4.5h0a2.19,2.19,0,0,1-.9.3,8.92,8.92,0,0,1-1.1.2l-.5.1v.5l.2,1.2.1.5.5-.1,10-1.2.5-.1-.1-.5-.2-1.2-.1-.5h-.5a5.63,5.63,0,0,1-1.3,0,2.51,2.51,0,0,1-1-.1,1.63,1.63,0,0,1-.6-.3,1.88,1.88,0,0,1-.2-.8L203,44l2.1-.3a12.26,12.26,0,0,0,3.3-.8,8,8,0,0,0,2.7-1.8h0a7.5,7.5,0,0,0,1.8-2.8A6.9,6.9,0,0,0,213.2,34.8Zm-4.9,2.9a3,3,0,0,1-.5,1.5h0a4.27,4.27,0,0,1-1.3,1.4,5.7,5.7,0,0,1-2.6.8l-1.2.2-1.1-9.3,1.8-.2a7.54,7.54,0,0,1,2.2.1,3.77,3.77,0,0,1,1.5.9,4.19,4.19,0,0,1,.9,1.4,5.84,5.84,0,0,1,.4,1.8h0A5.31,5.31,0,0,0,208.3,37.7Z" transform="translate(-2 -3)"/><path id="Stroke_201" data-name="Stroke 201" class="cls-4" d="M234.4,49.5h0c0,.1.1.1,0,0Zm0,0h0c0,.1.1.1,0,0Z" transform="translate(-2 -3)"/><path class="cls-4" d="M241.8,50.1a5.07,5.07,0,0,1-.9-.2h0a2.19,2.19,0,0,1-.8-.3h0a5.72,5.72,0,0,1-.8-.7,3.6,3.6,0,0,1-.5-.9l-7.9-20.3-.1-.3h-2l-.1.3c-1.1,2.9-2.4,6.2-3.8,9.9s-2.7,7-3.9,9.9h0a2.23,2.23,0,0,1-.7,1.2,3.63,3.63,0,0,1-.9.8h0c-.2.1-.5.2-.9.4a5.76,5.76,0,0,1-1,.2H217v2.1h9.9V50.1h-.5a7.19,7.19,0,0,1-2.2-.4c-.7-.2-.7-.4-.7-.6a1.76,1.76,0,0,1,.1-.6,3,3,0,0,1,.3-1.1c.2-.5.3-1,.5-1.6s.4-1.1.6-1.7h7.6l1.8,5h0a.37.37,0,0,0,.1.3h0v.2h0v0c-.1.1-.2.1-.5.2a5.62,5.62,0,0,1-2,.3h-.5v2.1h10.8V50.1Zm-15.9-8.5,2.8-7.3,2.8,7.3Z" transform="translate(-2 -3)"/><path id="Fill_203" data-name="Fill 203" class="cls-1" d="M265.8,37.3l-1.1-.1c-.1-.4-.2-.9-.4-1.5a7.74,7.74,0,0,0-.7-1.6l-.9-1.5a2.1,2.1,0,0,0-1.1-.8,13,13,0,0,0-1.3-.3,7.84,7.84,0,0,0-1.4-.2l-1-.1-2.3,18.7a3.08,3.08,0,0,0,.1,1,1.78,1.78,0,0,0,.7.8,8.66,8.66,0,0,0,1.2.5c.6.2,1.1.3,1.4.4l-.1,1.2-11-1.4.1-1.2h1.4a4.15,4.15,0,0,0,1.3-.1,1.93,1.93,0,0,0,.9-.5,2.32,2.32,0,0,0,.4-1l2.3-18.9-1-.1c-.3,0-.8-.1-1.3-.1s-1-.1-1.5-.1a2.08,2.08,0,0,0-1.2.5,4.56,4.56,0,0,0-1.2,1.2c-.4.5-.7.9-1.1,1.5a8.79,8.79,0,0,0-.7,1.3l-1.2-.1.8-6.3L266.3,31Z" transform="translate(-2 -3)"/><path class="cls-4" d="M245.7,27.9l-.9,7.3,2,.2.1-.4a4,4,0,0,1,.7-1.2,17,17,0,0,1,1-1.4,12,12,0,0,1,1.2-1.1,1.63,1.63,0,0,1,.9-.4,6.6,6.6,0,0,1,1.4.1c.5,0,.9.1,1.3.1l.5.1-2.3,18.3a1,1,0,0,1-.3.8.92.92,0,0,1-.6.4,6.76,6.76,0,0,1-1.2.1h-1.9l-.3,2.1,12,1.5.3-2.1-.5-.1a6.25,6.25,0,0,1-1.4-.4,8.17,8.17,0,0,0-1.1-.4,1.18,1.18,0,0,1-.5-.5,2,2,0,0,1-.1-.8l2.2-18.2h.5c.4.1.9.1,1.4.2a7.38,7.38,0,0,0,1.2.2,2.1,2.1,0,0,1,.8.6,8.51,8.51,0,0,1,.9,1.4,7.58,7.58,0,0,1,.6,1.6,10.26,10.26,0,0,1,.4,1.4v.4l2,.2.9-7.3Zm19.4,8.8c-.1-.3-.2-.8-.3-1.2a8.65,8.65,0,0,0-.7-1.7,5.6,5.6,0,0,0-1-1.5,3.05,3.05,0,0,0-1.3-1,13,13,0,0,0-1.3-.3,7.72,7.72,0,0,0-1.5-.2l-1.4-.2-2.4,19.2a5.7,5.7,0,0,0,.1,1.3,2.59,2.59,0,0,0,1,1.1,5.21,5.21,0,0,0,1.3.5c.4.1.8.2,1.1.3v.2L248.6,52v-.2h1a5.76,5.76,0,0,0,1.5-.1,1.77,1.77,0,0,0,1.1-.7,2.54,2.54,0,0,0,.5-1.3l2.4-19.3-1.5-.2c-.3,0-.8-.1-1.3-.1s-1-.1-1.5-.1a2.4,2.4,0,0,0-1.5.6,8,8,0,0,0-1.3,1.3,14.31,14.31,0,0,0-1.1,1.5,8.79,8.79,0,0,1-.6,1H246l.7-5.4,19.4,2.4-.7,5.3Z" transform="translate(-2 -3)"/><path class="cls-4" d="M283.3,34.1l-.5,2.1-.5-.1a4.12,4.12,0,0,0-1.2-.1h-1.2a.6.6,0,0,0-.6.3.91.91,0,0,0-.3.7l-3.8,16.6a1.1,1.1,0,0,0,0,.8,1.33,1.33,0,0,0,.5.6,8.12,8.12,0,0,0,1,.5c.5.2.9.4,1.2.5l.5.1-.5,2.1-11.3-2.6.5-2.1,1.7.3a5.94,5.94,0,0,0,1.1.1.6.6,0,0,0,.6-.3,2.39,2.39,0,0,0,.3-.7l3.8-16.6a1.1,1.1,0,0,0,0-.8c0-.1-.1-.3-.5-.5a5.42,5.42,0,0,0-1.1-.6,9.74,9.74,0,0,0-1.1-.5l-.5-.1.5-2.1Z" transform="translate(-2 -3)"/><path class="cls-4" d="M307.9,46a12.25,12.25,0,0,0-2.6-3.8,12.21,12.21,0,0,0-8.5-3.3,10,10,0,0,0-4.5,1.1,13.21,13.21,0,0,0-3.9,2.9,14.89,14.89,0,0,0-2.8,4.6,13.23,13.23,0,0,0-1,5.1,14,14,0,0,0,.8,4.7,13.62,13.62,0,0,0,2.5,3.9,11.51,11.51,0,0,0,4.1,2.6,12.06,12.06,0,0,0,4.6.8,11.42,11.42,0,0,0,4.4-1.1,11.67,11.67,0,0,0,3.9-2.9,15,15,0,0,0,3.8-9.8A11,11,0,0,0,307.9,46Zm-3.7,4a18.7,18.7,0,0,1-1.1,4.2,16,16,0,0,1-1.9,3.7,12,12,0,0,1-2.4,2.6,5.34,5.34,0,0,1-2.8,1.2,6.28,6.28,0,0,1-5.5-2.2,6.6,6.6,0,0,1-1.2-2.7h0a10.28,10.28,0,0,1,0-3.5,18,18,0,0,1,1.1-4.1,20.17,20.17,0,0,1,1.8-3.6h0a9.92,9.92,0,0,1,2.3-2.6,7.39,7.39,0,0,1,2.8-1.4,6,6,0,0,1,3.2.3,7.39,7.39,0,0,1,2.5,1.7,6.06,6.06,0,0,1,1.2,2.7h0A11.48,11.48,0,0,1,304.2,50Z" transform="translate(-2 -3)"/><path class="cls-4" d="M341.5,60l-1.1,1.9-.4-.2c-.2-.1-.5-.2-1.3-.5a4.34,4.34,0,0,0-1.3-.2c-.3,0-.7.3-1.1.8a19.82,19.82,0,0,0-1.6,2.4l-8.9,15.4-1.9-1.1v-.2L321.3,56,316,65.2a20.38,20.38,0,0,0-1.3,2.7,2.35,2.35,0,0,0-.1,1.4c0,.2.2.5.9,1.2s1,.9,1.1,1l.4.3-1.1,1.9-9.2-5.3,1.1-1.9.4.2a6.42,6.42,0,0,0,1.4.4,6.8,6.8,0,0,0,1.2.2,1.9,1.9,0,0,0,1.1-.7,25.22,25.22,0,0,0,1.8-2.6l5.8-10a5,5,0,0,0,.5-1.3,2,2,0,0,0,0-1.1,4.94,4.94,0,0,0-.9-1.5A5.63,5.63,0,0,0,318,49l-.4-.2,1.1-1.9,6.5,3.7,2.3,20.9,4.8-8.4a11,11,0,0,0,1.3-2.8c.2-.8.2-1.1.1-1.3a4.52,4.52,0,0,0-.9-1.1c-.5-.5-.9-.8-1.1-1l-.4-.3,1.1-1.9Z" transform="translate(-2 -3)"/><path id="Stroke_221" data-name="Stroke 221" class="cls-4" d="M344.9,89.9h0C345,89.9,345,90,344.9,89.9Zm0,0h0C345,89.9,345,90,344.9,89.9Z" transform="translate(-2 -3)"/><path class="cls-4" d="M375.4,88l-1.5,1.6-.4-.3a3.49,3.49,0,0,0-.9-.6c-.4-.2-.7-.4-.9-.5s-.5-.1-.6,0a1.79,1.79,0,0,0-.7.5l-10.8,11.6a7.74,7.74,0,0,0-1,1.2,1,1,0,0,0-.2.7,1.46,1.46,0,0,0,.5.8,16.68,16.68,0,0,0,1.4,1.5c.3.3.6.5.9.8a3.59,3.59,0,0,0,1,.7,4.05,4.05,0,0,0,.9.5,1.27,1.27,0,0,0,.6.1c.6-.1,1.5-.3,2.6-.6a21,21,0,0,0,2.5-.9l.3-.2,1.5,1.4-5.9,5.5L350.5,98.6,352,97l.4.3a9.68,9.68,0,0,0,.9.7c.5.4.7.5.8.5a.63.63,0,0,0,.6,0,2.31,2.31,0,0,0,.7-.5L367,85.6a2.51,2.51,0,0,0,.4-.7c.1-.2,0-.4-.1-.7a2,2,0,0,0-.5-.9,3.49,3.49,0,0,0-.6-.9l-.3-.3,1.5-1.6Z" transform="translate(-2 -3)"/><path class="cls-4" d="M404.1,123.8l-5.5,3.8-1.2-1.8.2-.3a9.67,9.67,0,0,0,1.3-2.5c.3-1,.4-1.8.1-2.2a8.79,8.79,0,0,1-.6-1,7.7,7.7,0,0,0-.9-1.3l-1.8-2.6-6.9,4.8,1.2,1.8a4.35,4.35,0,0,0,1.1,1.2,1.69,1.69,0,0,0,1,.3,2.54,2.54,0,0,0,1.2-.2,3.93,3.93,0,0,0,1.3-.6l.4-.2,1.2,1.8-8.4,5.9-1.3-1.8.3-.3a4.26,4.26,0,0,0,1.1-1.2c.4-.6.6-.9.6-1.1a2,2,0,0,0,0-1.1,4.1,4.1,0,0,0-.8-1.4l-1.2-1.8-5.4,3.8c-.5.4-.9.7-1.2,1a1.08,1.08,0,0,0-.3.7,2.24,2.24,0,0,0,.3,1,15,15,0,0,0,1.1,1.7l.8,1.2a6.23,6.23,0,0,0,.9,1.2,7.64,7.64,0,0,0,.9.9c.4.3.6.4.7.4a9.16,9.16,0,0,0,2.8-.1,8.9,8.9,0,0,0,2.5-.5l.4-.1,1.2,1.7-6.8,4.1-11.8-16.8,1.8-1.2.3.4a7.3,7.3,0,0,0,.9,1l.7.7a2.07,2.07,0,0,0,.6.2,1.08,1.08,0,0,0,.7-.3l13.9-9.7a2.65,2.65,0,0,0,.5-.6c.1-.1.1-.4.1-.7a3,3,0,0,0-.4-1.1,3,3,0,0,0-.5-1l-.2-.4,1.8-1.2Z" transform="translate(-2 -3)"/><path class="cls-4" d="M414.5,144.6a20.72,20.72,0,0,0-1.4-4.2l-4.8-9.1-.2-.4-.4.2-1,.5-.4.2.2.4a4.65,4.65,0,0,1,.3.9,3.55,3.55,0,0,1,.2,1h0a1.45,1.45,0,0,1-.2.7,2.65,2.65,0,0,1-.6.5h0l-15,8a1.2,1.2,0,0,1-.8.2,1.42,1.42,0,0,1-.6-.2h0c-.1-.1-.2-.3-.5-.7a6.42,6.42,0,0,1-.6-1l-.2-.4-.5.2-1,.6-.4.2.2.4,4.6,8.6a19.5,19.5,0,0,0,2.9,4,12.46,12.46,0,0,0,3.9,2.7h0a9.81,9.81,0,0,0,4.8.9,11.33,11.33,0,0,0,5.4-1.5,12.53,12.53,0,0,0,4.6-3.8,11.59,11.59,0,0,0,2-4.9h0C414.8,147.5,414.7,146.1,414.5,144.6Zm-3.5,2.9a8.32,8.32,0,0,1-2,3,13,13,0,0,1-3.4,2.5,21.16,21.16,0,0,1-3.8,1.5,9.89,9.89,0,0,1-3.4.2,6.29,6.29,0,0,1-2.8-1.2,7.46,7.46,0,0,1-2.2-2.7,3.72,3.72,0,0,1-.7-2.4c0-.5.3-.9,1.2-1.4l15.6-8.3a5.74,5.74,0,0,0,.4.7c.3.5.5.9.7,1.3a8.81,8.81,0,0,1,1,3.4A9,9,0,0,1,411,147.5Z" transform="translate(-2 -3)"/><path class="cls-4" d="M429.6,182.7l-2,.7-.2-.5a6.4,6.4,0,0,0-.6-1.1,5.31,5.31,0,0,0-.9-1.1,2.34,2.34,0,0,0-1.4-.1,22.74,22.74,0,0,0-2.8.7l-9.7,3.3a8.51,8.51,0,0,1-2.6.5,3.75,3.75,0,0,1-1.1-.1,7.85,7.85,0,0,1-3.1-1.3,9.47,9.47,0,0,1-2.2-2.3,12.6,12.6,0,0,1-1.3-2.6,11.18,11.18,0,0,1-.2-7.2,7.16,7.16,0,0,1,1.6-2.5,6.08,6.08,0,0,1,2.4-1.5l13.2-4.5a1.61,1.61,0,0,0,.7-.4,2.39,2.39,0,0,0,.3-.7,1.7,1.7,0,0,0,0-1,2.51,2.51,0,0,0-.2-1l-.1-.5,2-.7,3.5,10.2-2,.7-.2-.5a9.25,9.25,0,0,0-.5-1,6.13,6.13,0,0,0-.5-.8.54.54,0,0,0-.5-.3,2.2,2.2,0,0,0-.8.1l-12.3,4.2a13,13,0,0,0-1.7.8,5.71,5.71,0,0,0-1.4,1.3,4,4,0,0,0-.7,1.9,6.07,6.07,0,0,0,.4,2.8,8.23,8.23,0,0,0,1.4,2.5,4.36,4.36,0,0,0,1.9,1.2,6.8,6.8,0,0,0,1.9.3,5.84,5.84,0,0,0,1.8-.4l9.1-3.1a17.79,17.79,0,0,0,2.7-1.2,2.9,2.9,0,0,0,1-.9,6.62,6.62,0,0,0,.1-1.5c-.1-.7-.1-1.1-.2-1.5l-.1-.4,2-.7Z" transform="translate(-2 -3)"/><path class="cls-4" d="M433.8,208.9l-9.2,1.8-.4-2.2.4-.1a13.44,13.44,0,0,0,2.4-1.2,11.6,11.6,0,0,0,2.1-1.6,6.25,6.25,0,0,0,1.3-2,4.44,4.44,0,0,0,.2-2.3,6,6,0,0,0-1.1-2.6,6.19,6.19,0,0,0-2.3-1.9,10.63,10.63,0,0,0-3.5-.8,17.62,17.62,0,0,0-4.5.3,14.11,14.11,0,0,0-3.8,1.2,8.59,8.59,0,0,0-2.8,2.1,6.27,6.27,0,0,0-1.6,2.7,6.46,6.46,0,0,0-.2,3.1,5.28,5.28,0,0,0,.8,2.2,7,7,0,0,0,1.3,1.6,7.84,7.84,0,0,0,1.8,1.1,6.46,6.46,0,0,0,2.1.6l.5.1-.6,2.3-.5-.1a11,11,0,0,1-5.8-3,10.87,10.87,0,0,1-2.6-5.5,11.08,11.08,0,0,1-.2-1.9,10.68,10.68,0,0,1,.3-2.5,12,12,0,0,1,1.8-4,13.2,13.2,0,0,1,3.5-3.1,13,13,0,0,1,5-1.8,16.3,16.3,0,0,1,5.4,0,12.77,12.77,0,0,1,4.5,1.7,10.86,10.86,0,0,1,5,7.6,12.39,12.39,0,0,1,.1,3.3,11.36,11.36,0,0,1-.6,2.5l1,.4Z" transform="translate(-2 -3)"/><path id="Stroke_245" data-name="Stroke 245" class="cls-4" d="M413.1,232.3Zm0,0Z" transform="translate(-2 -3)"/><path class="cls-4" d="M435.2,227.8v-1.7l-.3-.1c-2.9-1.1-6.2-2.3-9.9-3.7s-7-2.6-10-3.7a4.4,4.4,0,0,1-1.2-.6,3.63,3.63,0,0,1-.8-.9h0a3.92,3.92,0,0,1-.4-.9,5.76,5.76,0,0,1-.2-1l-.1-.5h-2.2v.5l.2,8.9v.5h2.2v-.5a7.19,7.19,0,0,1,.4-2.2c.2-.7.4-.7.5-.7a1.49,1.49,0,0,1,.6.1h0a3,3,0,0,1,1.1.3h0a14.24,14.24,0,0,1,1.6.5c.5.2,1,.3,1.7.6l.1,7.6-4.9,1.9h0c-.1,0-.2.1-.3.1h-.2c-.1-.1-.1-.2-.2-.5a5.62,5.62,0,0,1-.3-2v-.5h-2.2v.5l.2,9.8v.5h2.2v-.5a3.44,3.44,0,0,1,.1-.9,4.65,4.65,0,0,1,.3-.9,2.7,2.7,0,0,1,.7-.8,1.93,1.93,0,0,1,.9-.5l20.2-8.2.3-.1ZM421,229.2l-.1-5.6,7.3,2.7Z" transform="translate(-2 -3)"/><path class="cls-4" d="M429.9,269.2l2.1.5L429.6,281l-2.1-.5.1-.5a4.12,4.12,0,0,0,.1-1.2v-1.2c0-.4-.2-.6-.3-.6a.91.91,0,0,0-.7-.3L410,273.2a.85.85,0,0,0-.7,0,1.33,1.33,0,0,0-.6.5,8.92,8.92,0,0,0-.5,1c-.2.5-.3.9-.4,1.2l-.1.5-2.1-.5,2.4-11.3,2.1.4-.2,1.8a7.47,7.47,0,0,0-.1,1.1.6.6,0,0,0,.3.6,2.39,2.39,0,0,0,.7.3l16.7,3.5a1.1,1.1,0,0,0,.8,0c.1,0,.2-.1.5-.5a5.42,5.42,0,0,0,.6-1.1,7.6,7.6,0,0,0,.4-1.1Z" transform="translate(-2 -3)"/><path class="cls-4" d="M435.3,243.8l-2.6,21.4-7.3-.9.2-2h.4a12.08,12.08,0,0,0,1.4-.3,11.11,11.11,0,0,0,1.6-.7,4.19,4.19,0,0,0,1.4-.9,2.1,2.1,0,0,0,.6-.8,3.73,3.73,0,0,0,.2-1.2,7.84,7.84,0,0,0,.2-1.4l.1-.5-18.2-2.2a2.2,2.2,0,0,0-.8.1.82.82,0,0,0-.5.5c0,.1-.2.4-.4,1.1s-.3,1-.4,1.4l-.1.5-2.1-.3,1.5-12,2.1.3v1.9c0,.7,0,1.1.1,1.2a1.63,1.63,0,0,0,.3.6,6.89,6.89,0,0,0,.8.3l18.3,2.3.1-.5c0-.3.1-.8.1-1.3s.1-1,.1-1.4a1.63,1.63,0,0,0-.4-.9,12,12,0,0,0-1.1-1.2,7.1,7.1,0,0,0-1.4-1c-.5-.3-.9-.5-1.2-.7l-.4-.1.2-2Z" transform="translate(-2 -3)"/><g id="Group_4" data-name="Group 4"><path id="Fill_356" data-name="Fill 356" class="cls-1" d="M205.8,429.2l-16.8-.9.4-1.4a17.22,17.22,0,0,0,2-.1c.9-.1,1.5-.1,1.9-.2a2.38,2.38,0,0,0,1.1-.6,2.33,2.33,0,0,0,.7-1.3l3.7-12.7-5.1-.3.5-1.8h.6a11.73,11.73,0,0,0,3.3-.2,16,16,0,0,0,2.6-.8,12.81,12.81,0,0,0,2-1.1,4.43,4.43,0,0,0,1.2-1l3.6.2c-.3,1-.7,2-1,3l-.9,3-3.3,11.3a1.08,1.08,0,0,0-.1.6,4.33,4.33,0,0,1-.1.5,1.08,1.08,0,0,0,.2.8,1.7,1.7,0,0,0,.6.6,3.73,3.73,0,0,0,1.6.5,8.21,8.21,0,0,0,1.8.3Z" transform="translate(-2 -3)"/><path id="Fill_358" data-name="Fill 358" class="cls-1" d="M228.2,415.3a8,8,0,0,0-.9-4.1,2.47,2.47,0,0,0-2.3-1.4c-1.5,0-2.8,1-3.9,2.9a13.68,13.68,0,0,0-1.6,7,5.11,5.11,0,0,0,1,3.4,2.71,2.71,0,0,0,2.4,1.3,6.35,6.35,0,0,0,2.3-.5,5.17,5.17,0,0,0,2.2-1.8c.1-.4.2-1.2.5-2.3a26.41,26.41,0,0,0,.3-4.5m7.1,2a17.63,17.63,0,0,1-5.7,13.6c-3.9,3.7-9.2,6.1-15.8,7.1l-.2-2,2.2-.4a16.21,16.21,0,0,0,4.4-1.9,13.36,13.36,0,0,0,3.1-2.6,18.12,18.12,0,0,0,2.2-3.2,26.32,26.32,0,0,0,1.5-3.5,12.8,12.8,0,0,1-3.7,2.1,12.26,12.26,0,0,1-3.9.6,6.86,6.86,0,0,1-5.1-2,7.24,7.24,0,0,1-2.1-5.3,10.49,10.49,0,0,1,3.7-8.2,14.06,14.06,0,0,1,9.4-3.6,10,10,0,0,1,7.2,2.4,9.83,9.83,0,0,1,2.8,6.9" transform="translate(-2 -3)"/><path id="Fill_360" data-name="Fill 360" class="cls-1" d="M261,410.4l-20,27-3.4.1,18.5-24.1-9.1.2a21,21,0,0,0-2.7.1,5.85,5.85,0,0,0-1.9.4,3.19,3.19,0,0,0-1.3,1.3,24,24,0,0,0-1.4,2.8h-1.5l2.1-10,21.1-.4Z" transform="translate(-2 -3)"/><path id="Fill_362" data-name="Fill 362" class="cls-1" d="M277.3,428.6l-17,.2.3-1.4c.4,0,1.1-.1,2-.2a12.5,12.5,0,0,0,1.9-.3,2.59,2.59,0,0,0,1.1-.7,4,4,0,0,0,.7-1.3l2.8-12.9-5.2.1.4-1.8h.6a16.56,16.56,0,0,0,3.3-.4,11.82,11.82,0,0,0,2.5-1,15.73,15.73,0,0,0,1.9-1.2,14.25,14.25,0,0,0,1.2-1.1l3.6-.1c-.3,1-.5,2-.8,3.1s-.5,2.1-.7,3.1l-2.5,11.5c0,.2-.1.3-.1.6v.5a1.88,1.88,0,0,0,.2.8,2.65,2.65,0,0,0,.6.5,4.65,4.65,0,0,0,1.7.4c.8.1,1.4.2,1.8.2Z" transform="translate(-2 -3)"/></g></g><g id="_50_years" data-name="50 years"><g id="Fill_364" data-name="Fill 364"><path class="cls-2" d="M226,258a52,52,0,0,1-4.2,21.1,46.09,46.09,0,0,1-12,16.3,58.5,58.5,0,0,1-18.6,10.7,70.84,70.84,0,0,1-24.1,3.9,72.43,72.43,0,0,1-30.4-6.2,47.43,47.43,0,0,1-19.2-15.7l19.8-22.9a52.7,52.7,0,0,0,13.1,9.2,38.57,38.57,0,0,0,17,4.3c6.3,0,11.4-1.8,15.1-5.3s5.7-8.4,5.7-14.3c0-5.7-1.7-10.4-5.1-14s-7.9-5.4-13.4-5.4a20.72,20.72,0,0,0-10.1,2.5,19.09,19.09,0,0,0-6.2,5.4H121.9L139.7,154h74.7v33H165.5L162,211.3l4.3-1.1c.3-.1,1-.2,2.2-.4h.2c.7-.1,1.6-.3,2.9-.4s2.7-.2,4.4-.2a55.13,55.13,0,0,1,20.3,3.6,46.07,46.07,0,0,1,26.2,25.5A55.73,55.73,0,0,1,226,258Z" transform="translate(-2 -3)"/><path class="cls-4" d="M231.5,249.9c-.1-.8-.2-1.6-.4-2.5h0a56.23,56.23,0,0,0-3.3-11.7c-.2-.5-.5-1.1-.7-1.6a73.22,73.22,0,0,0,3.5,13.4h0Q231.05,248.85,231.5,249.9Z" transform="translate(-2 -3)"/><path class="cls-4" d="M231.5,249.9c-.3-.8-.6-1.5-.9-2.3h0a85,85,0,0,1-3.5-13.4,50.85,50.85,0,0,0-11-15.9A54.63,54.63,0,0,0,198.3,207a60.82,60.82,0,0,0-22.5-4c-1.9,0-3.6.1-5.1.2-.7.1-1.2.1-1.8.2l1.5-10.7h49.7v-45H134.4L114.3,253.3h42.1l.9-1.5a11.86,11.86,0,0,1,4.8-4.6,14.79,14.79,0,0,1,7.2-1.8,12,12,0,0,1,9.1,3.6c2.3,2.4,3.5,5.7,3.5,9.9s-1.2,7.6-3.8,10-6.2,3.7-11,3.7a32.52,32.52,0,0,1-14.3-3.6,47.92,47.92,0,0,1-13.7-10.3l-2.3-2.4-27.1,31.2,1.2,1.9a52.55,52.55,0,0,0,23,19.8,77.73,77.73,0,0,0,32.9,6.8,77.66,77.66,0,0,0,26.1-4.2A64.14,64.14,0,0,0,213.5,300,52.62,52.62,0,0,0,227,281.6a56.76,56.76,0,0,0,4.8-23.5A44,44,0,0,0,231.5,249.9Zm-9.8,29.2a46.09,46.09,0,0,1-12,16.3,58.5,58.5,0,0,1-18.6,10.7A70.84,70.84,0,0,1,167,310a72.43,72.43,0,0,1-30.4-6.2,47.43,47.43,0,0,1-19.2-15.7l19.8-22.9a52.7,52.7,0,0,0,13.1,9.2,38.57,38.57,0,0,0,17,4.3c6.3,0,11.4-1.8,15.1-5.3s5.7-8.4,5.7-14.3c0-5.7-1.7-10.4-5.1-14s-7.9-5.4-13.4-5.4a20.72,20.72,0,0,0-10.1,2.5,19.09,19.09,0,0,0-6.2,5.4H121.8L139.6,154h74.7v33H165.4l-3.5,24.3,4.3-1.1c.3-.1,1-.2,2.2-.4h.2c.7-.1,1.6-.3,2.9-.4s2.7-.2,4.4-.2a55.13,55.13,0,0,1,20.3,3.6,46.07,46.07,0,0,1,26.2,25.5,51.48,51.48,0,0,1,3.7,19.9A52.16,52.16,0,0,1,221.7,279.1Z" transform="translate(-2 -3)"/></g><g id="Fill_366" data-name="Fill 366"><path class="cls-2" d="M341,192.9a65.65,65.65,0,0,0-11.9-20.7,54.62,54.62,0,0,0-18-13.6,52.55,52.55,0,0,0-22.5-4.9,51.13,51.13,0,0,0-22.5,4.9,54.24,54.24,0,0,0-17.9,13.6,61.06,61.06,0,0,0-11.9,20.7,76.56,76.56,0,0,0-4.3,26.4,78,78,0,0,0,4.3,26.3,65.65,65.65,0,0,0,11.9,20.7,54.32,54.32,0,0,0,62.9,13.4A53.66,53.66,0,0,0,329,266.3a62.76,62.76,0,0,0,11.9-20.7,76.38,76.38,0,0,0,4.3-26.3A77,77,0,0,0,341,192.9Zm-37.9,48.9c-3.4,6-8.2,9.5-14.4,9.5-6.4,0-11.4-3.5-14.9-9.5s-5-13.5-5-22.6,1.6-16.7,5-22.7,8.4-9.6,14.9-9.6c6.2,0,11,3.6,14.4,9.6s5,13.6,5,22.7S306.5,235.9,303.1,241.8Z" transform="translate(-2 -3)"/><path class="cls-1" d="M346.6,190.9h0a69.18,69.18,0,0,0-13.1-22.6,59.8,59.8,0,0,0-19.9-15h0a59.57,59.57,0,0,0-50,0,59.8,59.8,0,0,0-19.9,15,69.18,69.18,0,0,0-13.1,22.6,84.18,84.18,0,0,0-4.7,28.4,91.14,91.14,0,0,0,1.2,15c.2.5.5,1,.7,1.6a56.23,56.23,0,0,1,3.3,11.7h0c.1.8.3,1.6.4,2.5a67.79,67.79,0,0,0,12.2,20.3,58.21,58.21,0,0,0,19.9,14.9,54.75,54.75,0,0,0,11.4,3.9,54,54,0,0,0,5.8,1c.6.1,1.2.1,1.8.2.3,0,.7.1,1,.1,1.7.1,3.4.2,5.1.2h2.4a56.29,56.29,0,0,0,5.9-.5c.6-.1,1.1-.1,1.7-.2a51.26,51.26,0,0,0,15-4.6,58.21,58.21,0,0,0,19.9-14.9,69.18,69.18,0,0,0,13.1-22.6h0a87.88,87.88,0,0,0-.1-57ZM341,245.6a65.65,65.65,0,0,1-11.9,20.7,52.87,52.87,0,0,1-40.4,18.2,52.5,52.5,0,0,1-22.5-4.8,53.66,53.66,0,0,1-17.9-13.4,61.06,61.06,0,0,1-11.9-20.7,76.38,76.38,0,0,1-4.3-26.3,79.44,79.44,0,0,1,4.3-26.4,65.65,65.65,0,0,1,11.9-20.7,55.28,55.28,0,0,1,17.9-13.6,52.55,52.55,0,0,1,22.5-4.9,51.13,51.13,0,0,1,22.5,4.9,55.66,55.66,0,0,1,18,13.6,62.76,62.76,0,0,1,11.9,20.7,82,82,0,0,1-.1,52.7Z" transform="translate(-2 -3)"/><path class="cls-4" d="M231.1,247.5h0l-.5.2h0c.3.8.6,1.5.9,2.3A18.66,18.66,0,0,0,231.1,247.5Zm-3.3-11.7c-.2-.5-.5-1.1-.7-1.6a73.22,73.22,0,0,0,3.5,13.4h0l.5-.2h0A57.09,57.09,0,0,0,227.8,235.8Z" transform="translate(-2 -3)"/><path class="cls-4" d="M303.1,196.6c-3.4-6-8.2-9.6-14.4-9.6-6.4,0-11.4,3.5-14.9,9.6s-5,13.6-5,22.7,1.6,16.6,5,22.6,8.4,9.5,14.9,9.5c6.2,0,11-3.5,14.4-9.5s5-13.5,5-22.6S306.5,202.6,303.1,196.6ZM279,238.8c-2.7-4.7-4.2-11.2-4.2-19.6s1.5-14.9,4.2-19.7,5.9-6.6,9.7-6.6c3.4,0,6.5,1.8,9.2,6.6s4.2,11.3,4.2,19.7-1.5,14.8-4.2,19.6-5.8,6.5-9.2,6.5C284.8,245.3,281.6,243.4,279,238.8Z" transform="translate(-2 -3)"/></g><path class="cls-4" d="M254.8,289l-3,7-2.9-7H237.3l9.3,18.2v9.4h10.5v-9.4l5.9-11.5,1-1.9,1-1.9.5-.9.5-1,.5-1Zm8.2,2.5-7.9,15.4v7.8h-6.5v-7.9l-8-15.8h7l4.2,10.2,4.3-10.2h7.1Z" transform="translate(-2 -3)"/><polygon class="cls-3" points="261.2 288 261 288.5 253.1 303.9 253.1 311.7 246.6 311.7 246.6 303.8 238.6 288 245.6 288 249.8 298.3 254.2 288 261.2 288"/><polygon class="cls-3" points="279.9 306 279.9 311.7 263 311.7 263 288 279.6 288 279.6 293.7 269.5 293.7 269.5 297 278.1 297 278.1 302.3 269.5 302.3 269.5 306 279.9 306"/><path class="cls-4" d="M282.1,307v-8.3h1.5V289H263v27.7h20.9V307ZM265,291h16.6v5.7H271.5V300h8.6v5.3h-8.6V309h10.4v5.7H265Z" transform="translate(-2 -3)"/><g id="Fill_372" data-name="Fill 372"><path class="cls-4" d="M307,314l-8.2-23.7-.5-1.3h-8.8l-.5,1.3L280.8,314l-.9,2.7h10.9l.4-1.4,1-3.2h3.3l1,3.2.4,1.4H308Zm-8.4.7-1.4-4.6h-6.3l-1.4,4.6h-6.6l.7-2L291,291h5.9l7.5,21.7.7,2Z" transform="translate(-2 -3)"/><path class="cls-3" d="M304.5,312.7,297,291h-6l-7.5,21.7-.7,2h6.6l1.4-4.6h6.3l1.4,4.6h6.6ZM295,302l.5,1.8.6,2h-4.3l.6-2,.5-1.8,1.1-3.5Z" transform="translate(-2 -3)"/><polygon class="cls-4" points="294.1 302.7 289.8 302.7 290.4 300.7 290.9 298.9 292 295.4 293 299 293.5 300.7 294.1 302.7"/></g><g id="Fill_374" data-name="Fill 374"><path class="cls-4" d="M329.3,313.7l-4.2-7.3a7.39,7.39,0,0,0,1.7-2.5,11.25,11.25,0,0,0,1.1-4.8,9.37,9.37,0,0,0-.7-3.7h0a11.56,11.56,0,0,0-2-3.2h0a10,10,0,0,0-3.1-2.3,9.46,9.46,0,0,0-4.1-.9H305.1v27.7h10.5v-6l2.9,5,.6,1h12Zm-9.1,1h0l-4.2-7.3h-2.4v7.3h-6.5V291H318a6.83,6.83,0,0,1,3.2.7h0a7.9,7.9,0,0,1,2.5,1.9,10.14,10.14,0,0,1,1.6,2.6,8,8,0,0,1,.6,3,8.6,8.6,0,0,1-.9,3.9,7.76,7.76,0,0,1-2.5,2.9h0l3.8,6.7,1.2,2Z" transform="translate(-2 -3)"/><path class="cls-3" d="M326.4,312.7l-3.8-6.7h0a7.76,7.76,0,0,0,2.5-2.9,8.6,8.6,0,0,0,.9-3.9,8,8,0,0,0-.6-3,9.53,9.53,0,0,0-1.6-2.6,7.9,7.9,0,0,0-2.5-1.9h0a6.83,6.83,0,0,0-3.2-.7H307.2v23.7h6.5v-7.3h2.4l4.2,7.3h7.3Zm-12.8-16h3.9a1.73,1.73,0,0,1,1.2.6,2.71,2.71,0,0,1,.6,1.9,3.56,3.56,0,0,1-.5,1.9,1.51,1.51,0,0,1-1.1.7h-4.1Z" transform="translate(-2 -3)"/><path class="cls-4" d="M318.8,297.3a1.73,1.73,0,0,0-1.2-.6h-3.9v5.1h4.1a1.27,1.27,0,0,0,1.1-.7,3.31,3.31,0,0,0,.5-1.9A2.88,2.88,0,0,0,318.8,297.3Zm-1.5,2.5h-1.7v-1.1h1.7a1.21,1.21,0,0,1,.1.5A3.54,3.54,0,0,1,317.3,299.8Z" transform="translate(-2 -3)"/><path class="cls-3" d="M317.4,299.2v.5h-1.7v-1.1h1.7C317.3,298.7,317.4,298.9,317.4,299.2Z" transform="translate(-2 -3)"/></g><path class="cls-3" d="M346.8,304.6a5.58,5.58,0,0,0-1.4-2,11.84,11.84,0,0,0-2.2-1.4,20.92,20.92,0,0,0-3-1.1c-.7-.2-1.3-.4-1.9-.6s-1-.3-1.4-.5a2,2,0,0,1-.9-.6,1,1,0,0,1-.3-.8,1.05,1.05,0,0,1,.5-.9,2.65,2.65,0,0,1,1.4-.3,6,6,0,0,1,2.2.4,11.92,11.92,0,0,1,2,.8,21.16,21.16,0,0,1,2.1,1.1l2.8-5.4a15.86,15.86,0,0,0-1.8-.8,14.27,14.27,0,0,0-2.2-.8,15.1,15.1,0,0,0-4.9-.8,12.7,12.7,0,0,0-3.4.5,12.47,12.47,0,0,0-2.8,1.5,6.67,6.67,0,0,0-1.9,2.5,7.82,7.82,0,0,0-.7,3.5,8,8,0,0,0,.3,2.3,4.18,4.18,0,0,0,1.1,1.8,7.21,7.21,0,0,0,1.9,1.4,16.87,16.87,0,0,0,2.7,1.1c.7.2,1.4.5,2,.6s1.2.4,1.7.5a3.58,3.58,0,0,1,1.1.6,1,1,0,0,1,0,1.6,2.81,2.81,0,0,1-1.5.3,9.47,9.47,0,0,1-2.8-.4q-1.35-.45-2.4-.9a18.34,18.34,0,0,1-2.4-1.3l-2.8,5.7a16.27,16.27,0,0,0,2.3,1.1c.8.3,1.7.6,2.6.9l2.7.6a24.52,24.52,0,0,0,2.7.2,11.24,11.24,0,0,0,3.2-.4,12.61,12.61,0,0,0,2.9-1.2,6.67,6.67,0,0,0,2.1-2.3,8,8,0,0,0,.8-3.6A5.41,5.41,0,0,0,346.8,304.6Z" transform="translate(-2 -3)"/><path class="cls-4" d="M347.7,304.2a6.58,6.58,0,0,0-1.7-2.3,12,12,0,0,0-2.5-1.6c-.9-.4-1.9-.8-3.1-1.2-.7-.2-1.3-.4-1.9-.6s-.9-.3-1.2-.4-.5-.3-.6-.3v-.1h0a1.69,1.69,0,0,1,.9-.2,6.8,6.8,0,0,1,1.9.3c.7.2,1.3.5,1.9.7a18.65,18.65,0,0,1,2,1l.9.5.5-.9,2.8-5.4.5-.9-.9-.4-1.8-.9c-.7-.3-1.4-.6-2.2-.9a23.35,23.35,0,0,0-2.5-.7,12.41,12.41,0,0,0-2.7-.3,11.48,11.48,0,0,0-3.7.6,10.3,10.3,0,0,0-3.1,1.7,8,8,0,0,0-2.2,2.9,9.35,9.35,0,0,0-.8,3.9,6.77,6.77,0,0,0,.4,2.6,5.71,5.71,0,0,0,1.3,2.1A11.6,11.6,0,0,0,332,305a28.52,28.52,0,0,0,2.9,1.2c.7.2,1.4.5,2.1.7s1.1.3,1.6.5.7.3.9.4h0a5.53,5.53,0,0,1-.9.1,7.27,7.27,0,0,1-2.5-.4c-.9-.3-1.6-.5-2.3-.8s-1.6-.8-2.3-1.2l-.9-.6-.5,1-2.8,5.7-.4.8.8.5a11.51,11.51,0,0,0,2.5,1.2c.9.3,1.8.7,2.7.9a15.67,15.67,0,0,0,2.8.6c1,.1,1.9.2,2.8.2a14.47,14.47,0,0,0,3.5-.4,10.36,10.36,0,0,0,3.2-1.4,7.81,7.81,0,0,0,2.4-2.7,8.57,8.57,0,0,0,.9-4.1A14.71,14.71,0,0,0,347.7,304.2Zm-1.2,6.9a5.83,5.83,0,0,1-2.1,2.3,7.44,7.44,0,0,1-2.9,1.2,18.65,18.65,0,0,1-3.2.4,24.52,24.52,0,0,1-2.7-.2,13.1,13.1,0,0,1-2.7-.6,11.42,11.42,0,0,1-2.6-.9,16.27,16.27,0,0,1-2.3-1.1l2.8-5.7c.8.5,1.6.9,2.4,1.3s1.5.6,2.4.9a8.63,8.63,0,0,0,2.8.4,2.81,2.81,0,0,0,1.5-.3.81.81,0,0,0,.4-.8.91.91,0,0,0-.4-.8,10.91,10.91,0,0,0-1.1-.6,6.87,6.87,0,0,0-1.7-.5,15.19,15.19,0,0,1-2-.6c-1-.4-1.9-.7-2.7-1.1a7.21,7.21,0,0,1-1.9-1.4,5.44,5.44,0,0,1-1.1-1.8,8,8,0,0,1-.3-2.3,7.48,7.48,0,0,1,2.6-6,7.61,7.61,0,0,1,2.8-1.5,12.7,12.7,0,0,1,3.4-.5,19.48,19.48,0,0,1,2.5.2l2.4.6a14.27,14.27,0,0,1,2.2.8c.7.3,1.3.6,1.8.8l-2.8,5.4a21.16,21.16,0,0,0-2.1-1.1c-.6-.3-1.3-.5-2-.8a9.33,9.33,0,0,0-2.2-.4,2.9,2.9,0,0,0-1.4.3,1.05,1.05,0,0,0-.5.9,1.14,1.14,0,0,0,.3.8,3.49,3.49,0,0,0,.9.6,10.87,10.87,0,0,0,1.4.5c.5.2,1.2.3,1.9.6a20.92,20.92,0,0,1,3,1.1,9.25,9.25,0,0,1,2.2,1.4,5.58,5.58,0,0,1,1.4,2,7.78,7.78,0,0,1,.5,2.8A8.07,8.07,0,0,1,346.5,311.1Z" transform="translate(-2 -3)"/></g></g></g></svg>