<svg xmlns="http://www.w3.org/2000/svg" xmlns:xlink="http://www.w3.org/1999/xlink" width="81.292" height="88.507" viewBox="0 0 81.292 88.507">
  <defs>
    <linearGradient id="linear-gradient" x1="1" y1="0.215" x2="0.074" y2="0.919" gradientUnits="objectBoundingBox">
      <stop offset="0" stop-color="#ad68cb"/>
      <stop offset="1" stop-color="#920cf8"/>
    </linearGradient>
  </defs>
  <g id="Group_292" data-name="Group 292" transform="translate(-692 -2010.493)">
    <path id="Path_18" data-name="Path 18" d="M73.671-67.633a7.35,7.35,0,0,1,5.4,2.223,7.35,7.35,0,0,1,2.223,5.4v40.646a7.35,7.35,0,0,1-2.223,5.4,7.35,7.35,0,0,1-5.4,2.223H7.621a7.35,7.35,0,0,1-5.4-2.223A7.35,7.35,0,0,1,0-19.365V-60.011a7.35,7.35,0,0,1,2.223-5.4,7.35,7.35,0,0,1,5.4-2.223H25.4V-79.064a3.675,3.675,0,0,1,1.111-2.7,3.675,3.675,0,0,1,2.7-1.111H52.078a3.675,3.675,0,0,1,2.7,1.111,3.675,3.675,0,0,1,1.111,2.7v11.432ZM30.485-77.794v10.162H50.808V-77.794ZM76.211-19.365V-42.229h-25.4v6.351a3.675,3.675,0,0,1-1.111,2.7A3.675,3.675,0,0,1,47-32.067H34.3a3.675,3.675,0,0,1-2.7-1.111,3.675,3.675,0,0,1-1.111-2.7v-6.351H5.081v22.863A2.473,2.473,0,0,0,5.8-17.539a2.473,2.473,0,0,0,1.826.714h66.05a2.473,2.473,0,0,0,1.826-.714A2.473,2.473,0,0,0,76.211-19.365ZM35.565-37.148H45.727v-5.081H35.565ZM76.211-47.309v-12.7a2.473,2.473,0,0,0-.714-1.826,2.473,2.473,0,0,0-1.826-.714H7.621a2.473,2.473,0,0,0-1.826.714,2.473,2.473,0,0,0-.714,1.826v12.7Z" transform="translate(692 2093.367)" fill="url(#linear-gradient)"/>
    <ellipse id="Ellipse_20" data-name="Ellipse 20" cx="40.5" cy="3" rx="40.5" ry="3" transform="translate(692 2093)" fill="#e0e0e000"/>
  </g>
</svg>
