<svg xmlns="http://www.w3.org/2000/svg" xmlns:xlink="http://www.w3.org/1999/xlink" width="99" height="118.656" viewBox="0 0 99 118.656">
  <defs>
    <linearGradient id="linear-gradient" x1="0.861" y1="0.152" x2="0.157" y2="0.864" gradientUnits="objectBoundingBox">
      <stop offset="0" stop-color="#ad68cb"/>
      <stop offset="1" stop-color="#920cf8"/>
    </linearGradient>
  </defs>
  <g id="Group_291" data-name="Group 291" transform="translate(-869 -2692.786)">
    <path id="Path_15" data-name="Path 15" d="M49.406-87.656a47.892,47.892,0,0,1,24.7,6.674A49.923,49.923,0,0,1,92.138-62.953a47.892,47.892,0,0,1,6.674,24.7,47.892,47.892,0,0,1-6.674,24.7A49.923,49.923,0,0,1,74.109,4.482a47.892,47.892,0,0,1-24.7,6.674A47.892,47.892,0,0,1,24.7,4.482,49.923,49.923,0,0,1,6.674-13.547,47.892,47.892,0,0,1,0-38.25a47.892,47.892,0,0,1,6.674-24.7A49.923,49.923,0,0,1,24.7-80.982,47.892,47.892,0,0,1,49.406-87.656ZM87.855-57.375A42.412,42.412,0,0,0,77.6-70.822,40.333,40.333,0,0,0,62.754-79.09q5.977,8.168,8.766,21.715ZM66.937-38.25A102.7,102.7,0,0,0,66.14-51H32.672a102.7,102.7,0,0,0-.8,12.75,102.7,102.7,0,0,0,.8,12.75H66.14A102.7,102.7,0,0,0,66.937-38.25ZM49.406-81.281q-4.184,0-8.566,6.375-4.582,6.574-6.973,17.531H64.945q-2.391-10.957-6.973-17.531Q53.59-81.281,49.406-81.281ZM36.059-79.09a40.333,40.333,0,0,0-14.842,8.268,42.411,42.411,0,0,0-10.26,13.447H27.293Q30.082-70.722,36.059-79.09ZM6.375-38.25A41.274,41.274,0,0,0,8.367-25.5H26.3a101.907,101.907,0,0,1-.8-12.65A106.757,106.757,0,0,1,26.3-51H8.367A41.274,41.274,0,0,0,6.375-38.25Zm4.582,19.125A42.411,42.411,0,0,0,21.217-5.678,40.333,40.333,0,0,0,36.059,2.59q-5.977-8.168-8.766-21.715ZM49.406,4.781q4.184,0,8.566-6.375,4.582-6.574,6.973-17.531H33.867Q36.258-8.168,40.84-1.594,45.223,4.781,49.406,4.781ZM62.953,2.59A40.588,40.588,0,0,0,77.6-5.678a42.412,42.412,0,0,0,10.26-13.447H71.519Q68.73-5.777,62.953,2.59ZM72.515-25.5h17.93a41.274,41.274,0,0,0,1.992-12.75A41.274,41.274,0,0,0,90.445-51H72.515a101.908,101.908,0,0,1,.8,12.65A106.758,106.758,0,0,1,72.515-25.5Z" transform="translate(869 2780.442)" fill="url(#linear-gradient)"/>
    <ellipse id="Ellipse_10" data-name="Ellipse 10" cx="49.5" cy="3" rx="49.5" ry="3" transform="translate(869 2805.442)" fill="#e0e0e000"/>
  </g>
</svg>
