<svg xmlns="http://www.w3.org/2000/svg" xmlns:xlink="http://www.w3.org/1999/xlink" width="113" height="108.125" viewBox="0 0 113 108.125">
  <defs>
    <linearGradient id="linear-gradient" x1="0.861" y1="0.152" x2="0.157" y2="0.864" gradientUnits="objectBoundingBox">
      <stop offset="0" stop-color="#ad68cb"/>
      <stop offset="1" stop-color="#920cf8"/>
    </linearGradient>
  </defs>
  <g id="Group_290" data-name="Group 290" transform="translate(-508 -2703.317)">
    <path id="Path_14" data-name="Path 14" d="M46.758-29.883a1.306,1.306,0,0,1-.967.352,1.306,1.306,0,0,1-.967-.352l-11.25-11.25a1.89,1.89,0,0,1-.352-1.055,1.89,1.89,0,0,1,.352-1.055l11.25-11.25a1.306,1.306,0,0,1,.967-.352,1.306,1.306,0,0,1,.967.352l2.109,2.109a1.306,1.306,0,0,1,.352.967,1.306,1.306,0,0,1-.352.967l-8.262,8.262,8.262,8.262a1.306,1.306,0,0,1,.352.967,1.306,1.306,0,0,1-.352.967Zm16.875-2.109a1.306,1.306,0,0,1-.352-.967,1.306,1.306,0,0,1,.352-.967l8.262-8.262-8.262-8.262a1.306,1.306,0,0,1-.352-.967,1.306,1.306,0,0,1,.352-.967l2.109-2.109a1.306,1.306,0,0,1,.967-.352,1.306,1.306,0,0,1,.967.352l11.25,11.25a1.89,1.89,0,0,1,.352,1.055,1.89,1.89,0,0,1-.352,1.055l-11.25,11.25a1.306,1.306,0,0,1-.967.352,1.306,1.306,0,0,1-.967-.352Zm46.055,17.93a2.738,2.738,0,0,1,2.021.791,2.737,2.737,0,0,1,.791,2.021v8.437a13.541,13.541,0,0,1-4.131,9.932,13.541,13.541,0,0,1-9.932,4.131H14.062A13.541,13.541,0,0,1,4.131,7.119,13.541,13.541,0,0,1,0-2.812V-11.25a2.737,2.737,0,0,1,.791-2.021,2.737,2.737,0,0,1,2.021-.791H11.25V-61.875a10.811,10.811,0,0,1,3.34-7.91,10.811,10.811,0,0,1,7.91-3.34H90a10.811,10.811,0,0,1,7.91,3.34,10.811,10.811,0,0,1,3.34,7.91v47.812ZM16.875-61.875v47.812H43.769a1.425,1.425,0,0,1,1.406,1.23,5.03,5.03,0,0,0,1.934,3.164,5.589,5.589,0,0,0,3.516,1.23h11.25a5.589,5.589,0,0,0,3.516-1.23,5.03,5.03,0,0,0,1.934-3.164,1.425,1.425,0,0,1,1.406-1.23H95.625V-61.875a5.406,5.406,0,0,0-1.67-3.955A5.406,5.406,0,0,0,90-67.5H22.5a5.406,5.406,0,0,0-3.955,1.67A5.406,5.406,0,0,0,16.875-61.875Zm90,59.062V-8.437H72.6a8.357,8.357,0,0,1-3.076,4.043,8.091,8.091,0,0,1-4.834,1.582H47.812a8.091,8.091,0,0,1-4.834-1.582A8.357,8.357,0,0,1,39.9-8.437H5.625v5.625A8.137,8.137,0,0,0,8.086,3.164a8.137,8.137,0,0,0,5.977,2.461H98.437a8.137,8.137,0,0,0,5.977-2.461A8.137,8.137,0,0,0,106.875-2.812Z" transform="translate(508 2776.442)" fill="url(#linear-gradient)"/>
    <ellipse id="Ellipse_12" data-name="Ellipse 12" cx="56.5" cy="3" rx="56.5" ry="3" transform="translate(508 2805.442)" fill="#e0e0e000"/>
  </g>
</svg>
