<svg xmlns="http://www.w3.org/2000/svg" xmlns:xlink="http://www.w3.org/1999/xlink" width="114.75" height="120.25" viewBox="0 0 114.75 120.25">
  <defs>
    <linearGradient id="linear-gradient" x1="0.861" y1="0.152" x2="0.157" y2="0.864" gradientUnits="objectBoundingBox">
      <stop offset="0" stop-color="#ad68cb"/>
      <stop offset="1" stop-color="#920cf8"/>
    </linearGradient>
  </defs>
  <g id="Group_289" data-name="Group 289" transform="translate(-153 -2691.192)">
    <path id="Path_13" data-name="Path 13" d="M86.062-38.25a3.1,3.1,0,0,1,2.291.9,3.1,3.1,0,0,1,.9,2.291,3.1,3.1,0,0,1-.9,2.291,3.1,3.1,0,0,1-2.291.9,3.1,3.1,0,0,1-2.291-.9,3.1,3.1,0,0,1-.9-2.291,3.1,3.1,0,0,1,.9-2.291A3.1,3.1,0,0,1,86.062-38.25Zm25.5-6.375a3.1,3.1,0,0,1,2.291.9,3.1,3.1,0,0,1,.9,2.291v25.5a3.1,3.1,0,0,1-.9,2.291,3.1,3.1,0,0,1-2.291.9H101.8a27.223,27.223,0,0,1-6.176,6.176V9.562a3.069,3.069,0,0,1-3.187,3.187H70.125a3.069,3.069,0,0,1-3.187-3.187V0H54.187V9.562A3.069,3.069,0,0,1,51,12.75H28.687A3.069,3.069,0,0,1,25.5,9.562V-6.574a30.794,30.794,0,0,1-9.363-11.057A31.042,31.042,0,0,1,12.75-31.875H11.156A10.784,10.784,0,0,1,2.789-35.66,10.145,10.145,0,0,1,.2-44.426,10.1,10.1,0,0,1,3.885-51.4a11.492,11.492,0,0,1,7.67-2.789,1.148,1.148,0,0,1,.8.4,1.148,1.148,0,0,1,.4.8v3.984a1.148,1.148,0,0,1-.4.8,1.148,1.148,0,0,1-.8.4h-.2a5.019,5.019,0,0,0-3.187,1.1,3.968,3.968,0,0,0-1.594,2.689,4.258,4.258,0,0,0,.9,4.084,4.724,4.724,0,0,0,3.686,1.693h2.191A31.132,31.132,0,0,1,20.121-52.2a31.712,31.712,0,0,1,12.551-9.164,21.72,21.72,0,0,1-.8-5.578,21.952,21.952,0,0,1,2.988-11.156,21.915,21.915,0,0,1,8.168-8.168A21.952,21.952,0,0,1,54.187-89.25a21.952,21.952,0,0,1,11.156,2.988,21.915,21.915,0,0,1,8.168,8.168A21.952,21.952,0,0,1,76.5-66.937l-.2,1.992a28.072,28.072,0,0,1,16.137-5.18h3.187v12.949a31.124,31.124,0,0,1,10.16,12.551ZM54.187-82.875a15.347,15.347,0,0,0-11.256,4.682A15.347,15.347,0,0,0,38.25-66.937a13.18,13.18,0,0,0,.6,3.785,29.444,29.444,0,0,1,5.777-.6h25.1a13.1,13.1,0,0,0,.4-3.187,15.347,15.347,0,0,0-4.682-11.256A15.347,15.347,0,0,0,54.187-82.875Zm54.187,63.75V-38.25H101.6a76.71,76.71,0,0,0-4.582-8.766,48.378,48.378,0,0,0-7.77-7.172v-9.363a22.837,22.837,0,0,0-7.172,2.391,48.023,48.023,0,0,0-5.18,3.785H44.625a25.285,25.285,0,0,0-12.85,3.387,24.808,24.808,0,0,0-9.264,9.264,25.285,25.285,0,0,0-3.387,12.85v.2a23.4,23.4,0,0,0,1.594,8.766q2.988,6.973,11.156,13.148V6.375H47.812V-6.375h25.5V6.375H89.25V-9.762a57.335,57.335,0,0,0,5.379-4.383,41.363,41.363,0,0,0,3.187-3.785l.8-1.2Z" transform="translate(153 2780.442)" fill="url(#linear-gradient)"/>
    <ellipse id="Ellipse_11" data-name="Ellipse 11" cx="55.5" cy="3" rx="55.5" ry="3" transform="translate(153 2805.442)" fill="#e0e0e000"/>
  </g>
</svg>
