<svg xmlns="http://www.w3.org/2000/svg" xmlns:xlink="http://www.w3.org/1999/xlink" width="70" height="89" viewBox="0 0 70 89">
  <defs>
    <linearGradient id="linear-gradient" x1="1" y1="0.215" x2="0.074" y2="0.919" gradientUnits="objectBoundingBox">
      <stop offset="0" stop-color="#ad68cb"/>
      <stop offset="1" stop-color="#920cf8"/>
    </linearGradient>
  </defs>
  <g id="Group_293" data-name="Group 293" transform="translate(-1401 -2010)">
    <path id="Path_19" data-name="Path 19" d="M44.859-17.859a15.6,15.6,0,0,1,5.906,1.266,18.255,18.255,0,0,1,8.156,5.625Q63-5.766,63,2.25a6.509,6.509,0,0,1-1.969,4.781A6.509,6.509,0,0,1,56.25,9H6.75A6.509,6.509,0,0,1,1.969,7.031,6.509,6.509,0,0,1,0,2.25Q0-5.766,4.078-10.969a18.255,18.255,0,0,1,8.156-5.625,16.36,16.36,0,0,1,5.906-1.266L31.5-6.75ZM29.25,4.5V-2.812L16.594-13.219a12.989,12.989,0,0,0-6.328,2.672Q4.5-6.328,4.5,2.25A2.166,2.166,0,0,0,6.75,4.5ZM58.5,2.25q0-8.578-5.766-12.8a12.989,12.989,0,0,0-6.328-2.672L33.75-2.812V4.5h22.5A2.166,2.166,0,0,0,58.5,2.25ZM1.828-48.937A2.319,2.319,0,0,1,.211-50.484a3.378,3.378,0,0,1,0-2.531,2.319,2.319,0,0,1,1.617-1.547l27.281-8.156A9.828,9.828,0,0,1,31.5-63a9.828,9.828,0,0,1,2.391.281l27.281,8.156a2.319,2.319,0,0,1,1.617,1.547,3.378,3.378,0,0,1,0,2.531,2.319,2.319,0,0,1-1.617,1.547L50.2-45.7A18.964,18.964,0,0,1,51.75-38.25a19.545,19.545,0,0,1-2.742,10.125,20.637,20.637,0,0,1-7.383,7.383A19.545,19.545,0,0,1,31.5-18a19.545,19.545,0,0,1-10.125-2.742,20.637,20.637,0,0,1-7.383-7.383A19.545,19.545,0,0,1,11.25-38.25,18.964,18.964,0,0,1,12.8-45.7L6.187-47.672v4.359A3.041,3.041,0,0,1,7.875-40.57a3.425,3.425,0,0,1-1.547,2.883l2.109,8.719a1.487,1.487,0,0,1-.07,1.336A1.039,1.039,0,0,1,7.453-27H1.547a1.039,1.039,0,0,1-.914-.633,1.487,1.487,0,0,1-.07-1.336l2.109-8.719A3.425,3.425,0,0,1,1.125-40.57a3.041,3.041,0,0,1,1.687-2.742v-5.344ZM31.5-22.5a15.5,15.5,0,0,0,7.875-2.109,15.469,15.469,0,0,0,5.766-5.766A15.5,15.5,0,0,0,47.25-38.25a14.843,14.843,0,0,0-1.406-6.187L33.891-40.781a8.3,8.3,0,0,1-4.781,0L17.156-44.437A14.843,14.843,0,0,0,15.75-38.25a15.5,15.5,0,0,0,2.109,7.875,15.469,15.469,0,0,0,5.766,5.766A15.5,15.5,0,0,0,31.5-22.5ZM30.375-58.359,8.156-51.75l22.219,6.609a4.57,4.57,0,0,0,2.25,0L54.844-51.75,32.625-58.359A4.57,4.57,0,0,0,30.375-58.359Z" transform="translate(1405 2073)" fill="url(#linear-gradient)"/>
    <ellipse id="Ellipse_19" data-name="Ellipse 19" cx="35" cy="3" rx="35" ry="3" transform="translate(1401 2093)" fill="#e0e0e000"/>
  </g>
</svg>
